<svg xmlns="http://www.w3.org/2000/svg" viewBox="0 0 512.001 512.001"><path d="M115.121 152.013C51.643 152.013 0 203.656 0 267.134v90.094h30.031v-90.094c0-16.559 13.472-30.032 30.031-30.032a30.038 30.038 0 0124.912 13.251l83.551-85.226c-16.357-8.579-34.824-13.114-53.404-13.114z" fill="#ea596e"/><path d="M310.075 498.339L65.864 254.129 267.79 52.203l244.211 244.211-201.926 201.925z" fill="#ccefff"/><path fill="#ace3fc" d="M511.986 296.412L411.028 397.37 166.824 153.167 267.783 52.208z"/><path d="M327.91 276.419c-38.11 0-73.885-14.821-100.916-41.851l21.235-21.235c21.686 21.686 50.501 33.412 81.116 33.046 30.615-.375 59.142-12.835 80.328-35.085 41.801-43.9 40.471-114.954-2.964-158.39-12.3-12.299-32.312-12.299-44.612 0l-46.805 46.805-21.235-21.235 46.805-46.805c24.008-24.009 63.074-24.009 87.082 0 26.604 26.604 41.672 61.958 42.43 99.55.762 37.811-13.072 73.603-38.952 100.784-26.813 28.16-62.935 43.93-101.71 44.406-.6.007-1.201.01-1.802.01z" fill="#0a4eaf"/><circle cx="237.609" cy="223.955" r="30.031" fill="#0c61c6"/></svg>