<svg viewBox="1 0 511.999 511" xmlns="http://www.w3.org/2000/svg"><path d="M493.453 231.273L230.852 493.875c-12.012 12.012-27.989 18.625-44.989 18.617-16.984.008-32.965-6.605-44.976-18.617L18.625 371.609C6.613 359.598 0 343.621 0 326.63c0-16.992 6.613-32.973 18.625-44.984l46.61-46.594L281.226 19.047C293.242 7.086 309.18.5 326.129.5c16.992 0 32.969 6.613 44.98 18.637l122.25 122.25C505.387 153.398 512 169.379 512 186.37c0 16.945-6.586 32.883-18.547 44.902zm0 0" fill="#f30051"/><path d="M493.453 231.273L230.852 493.875c-12.012 12.012-27.989 18.625-44.989 18.617-16.984.008-32.965-6.605-44.976-18.617l-62.051-62.05 352.48-352.481 62.043 62.043C505.387 153.398 512 169.379 512 186.37c0 16.945-6.586 32.883-18.547 44.902zm0 0" fill="#bf065a"/><path d="M493.453 231.273l-.094.094-111.332 111.317-104.582 104.582c-11.742 11.754-27.367 18.226-43.996 18.222-16.61 0-32.234-6.472-43.992-18.23L65.242 323.043c-24.273-24.27-24.277-63.734-.008-87.992l104.578-104.578L281.227 19.047C293.242 7.086 309.18.5 326.129.5c16.992 0 32.969 6.613 44.98 18.637l122.25 122.25C505.387 153.398 512 169.379 512 186.37c0 16.945-6.586 32.883-18.547 44.902zm0 0" fill="#ff3980"/><path d="M493.453 231.273l-.094.094-111.332 111.317-104.582 104.582c-11.742 11.754-27.367 18.226-43.996 18.222-16.61 0-32.234-6.472-43.992-18.23L126.43 384.23 431.316 79.344l62.043 62.043C505.387 153.398 512 169.379 512 186.37c0 16.945-6.586 32.883-18.547 44.902zm0 0" fill="#f30051"/><path d="M493.453 231.273l-.094.094-111.332 111.317-212.215-212.211L281.227 19.047C293.242 7.086 309.18.5 326.129.5c16.992 0 32.969 6.613 44.98 18.637l122.25 122.25C505.387 153.398 512 169.379 512 186.37c0 16.945-6.586 32.883-18.547 44.902zm0 0" fill="#3aaaff"/><path d="M493.453 231.273l-.094.094-111.332 111.317L275 235.66 431.316 79.344l62.043 62.043C505.387 153.398 512 169.379 512 186.37c0 16.945-6.586 32.883-18.547 44.902zm0 0" fill="#0095ff"/></svg>