<svg viewBox="0 0 512.005 512.005" xmlns="http://www.w3.org/2000/svg"><path d="M63.49 259.216h385.041v58.923H63.49z" fill="#f69583"/><g fill="#ffcec0"><path d="M106.423 337.189H229.06v134.755H106.423zM282.961 337.189h122.637v134.755H282.961z"/></g><path d="M83.255 272.518l-28.462-78.2c-4.604-12.649-18.59-19.171-31.239-14.567-12.649 4.604-19.171 18.59-14.567 31.239l28.462 78.2z" fill="#fdb0a0"/><path d="M54.793 194.322l28.461 78.197-30.435 11.078L24.358 205.4a24.307 24.307 0 00-13.909-14.317 24.252 24.252 0 0113.105-11.328c12.652-4.605 26.634 1.914 31.239 14.567z" fill="#f69583"/><path d="M474.571 289.19l28.462-78.2c4.604-12.649-1.918-26.635-14.567-31.239s-26.635 1.918-31.239 14.567l-28.462 78.2z" fill="#fdb0a0"/><path d="M503.034 210.994l-28.461 78.197-22.903-8.336 28.461-78.197c3.087-8.482 1.172-17.561-4.234-23.999a24.212 24.212 0 0112.57 1.096c12.643 4.601 19.172 18.586 14.567 31.239z" fill="#f69583"/><path d="M441.259 263.555c51.037-51.165 51.001-134.015-.115-185.131-51.117-51.118-133.969-51.153-185.134-.113-51.165-51.04-134.017-51.005-185.134.113-51.117 51.116-51.153 133.966-.115 185.131L249.65 442.45a8.995 8.995 0 0012.72 0z" fill="#fb4a59"/><path d="M441.262 263.552L262.373 442.451c-3.512 3.512-9.215 3.512-12.726 0l-22.361-22.371 170.875-170.875c51.035-51.166 50.995-134.017-.12-185.132-9.174-9.175-19.38-16.708-30.235-22.591 26.843 3.972 52.686 16.288 73.337 36.938 51.115 51.125 51.155 133.967.119 185.132z" fill="#f82f40"/><g><path d="M83.414 305.874l-13.571-69.946c-2.929-15.145-18.659-24.16-33.236-18.968-11.849 4.22-18.587 16.759-16.184 29.105l13.883 71.322 6.37 32.726c9.509 48.85 56.819 80.743 105.669 71.234l27.527-5.358-6.777-34.817c-7.579-38.932-38.945-68.816-78.198-74.503z" fill="#ffdfd0"/><path d="M173.875 415.985l-24.69 4.807-5.624-28.917c-7.581-38.93-38.949-68.817-78.202-74.498a7.804 7.804 0 01-6.537-6.236l-12.52-64.509c-2.156-11.191-11.324-19.038-21.84-20.273 2.888-4.218 7.039-7.581 12.141-9.395 14.582-5.196 30.314 3.819 33.24 18.962l13.575 69.947 5.481.798c39.253 5.681 70.622 35.567 78.193 74.498z" fill="#ffcec0"/></g><g><path d="M428.606 305.874l13.571-69.946c2.929-15.145 18.659-24.16 33.236-18.968 11.849 4.22 18.587 16.759 16.184 29.105l-13.883 71.322-6.37 32.726c-9.509 48.85-56.819 80.743-105.669 71.234l-27.527-5.358 6.777-34.817c7.579-38.932 38.945-68.816 78.198-74.503z" fill="#ffdfd0"/><path d="M491.596 246.062l-13.879 71.325-6.374 32.727c-9.509 48.848-56.818 80.739-105.666 71.23l-9.424-1.833c43.12 1.016 81.964-29.126 90.486-72.892l6.365-32.727 13.889-71.315c1.89-9.699-1.871-19.522-9.31-25.317a25.065 25.065 0 0117.736-.294c11.845 4.216 18.58 16.756 16.177 29.096z" fill="#ffcec0"/></g><g><path d="M428.805 265.472l-171.74 171.676c-.361.361-.773.438-1.056.438s-.695-.076-1.057-.438L83.215 265.473l-6.008-30.968a32.69 32.69 0 00-15.904-22.204 32.676 32.676 0 00-15.642-4.292c-13.829-44.106-2.279-91.484 30.518-124.281 18.171-18.171 41.116-30.061 66.354-34.384a7.5 7.5 0 006.126-8.659 7.498 7.498 0 00-8.658-6.126c-28.314 4.85-54.052 18.185-74.429 38.562-18.617 18.617-31.484 41.979-37.208 67.557a139.092 139.092 0 00-3.34 30.855c-1.366.303-2.715.69-4.036 1.171-8 2.912-14.388 8.765-17.986 16.48-3.598 7.716-3.976 16.371-1.064 24.372l10.319 28.352c.061.169.148.32.22.482.065 1.696.251 3.403.583 5.11l20.253 104.047c4.982 25.593 19.632 47.713 41.251 62.288a98.047 98.047 0 0024.356 11.912v46.198a7.5 7.5 0 0015 0v-42.586a96.636 96.636 0 0015.002 1.178c6.261 0 12.572-.604 18.854-1.828l27.527-5.358c4.065-.792 6.72-4.729 5.929-8.795s-4.728-6.721-8.795-5.929l-27.527 5.358c-21.659 4.218-43.665-.254-61.962-12.589-18.297-12.334-30.696-31.056-34.912-52.716L27.785 244.633c-1.719-8.833 3.155-17.692 11.338-20.607a17.711 17.711 0 0114.742 1.301 17.706 17.706 0 018.615 12.031l13.571 69.946a7.5 7.5 0 006.288 5.994l5.483.794c36.052 5.223 64.951 32.756 71.912 68.514a7.5 7.5 0 0014.724-2.866c-.156-.803-.34-1.596-.515-2.392l47.617 47.618v46.979a7.5 7.5 0 0015 0v-31.978l7.787 7.787c3.115 3.116 7.257 4.832 11.664 4.832s8.549-1.716 11.663-4.832l7.787-7.787v31.978c0 4.142 3.357 7.5 7.5 7.5s7.5-3.358 7.5-7.5v-46.978l47.617-47.619c-.175.796-.359 1.589-.515 2.392a7.5 7.5 0 007.369 8.935 7.504 7.504 0 007.354-6.068c6.962-35.757 35.86-63.291 71.912-68.514l5.483-.794a7.499 7.499 0 006.287-5.994l13.572-69.951a17.706 17.706 0 018.614-12.026 17.716 17.716 0 0114.742-1.301c8.184 2.915 13.058 11.773 11.339 20.607l-8.476 43.538a7.5 7.5 0 005.928 8.795 7.494 7.494 0 008.796-5.929l8.476-43.538c.339-1.742.527-3.485.587-5.216.141-.276.28-.554.389-.852l10.146-27.876c6.011-16.515-2.535-34.84-19.05-40.851a31.977 31.977 0 00-4.082-1.186c.056-28.079-8.337-55.963-24.568-79.34a7.5 7.5 0 00-12.322 8.555c21.57 31.068 27.618 71.068 16.302 107.276a32.683 32.683 0 00-15.645 4.292 32.685 32.685 0 00-15.902 22.2zM20.146 219.72l-4.111-11.295a16.757 16.757 0 01.563-12.901 16.752 16.752 0 019.323-8.641 138.68 138.68 0 005.022 24.337 32.19 32.19 0 00-10.797 8.5zm69.616 79.495l-1.457-7.509 8.86 8.86a100.266 100.266 0 00-7.193-1.32zm332.285.031c-2.427.352-4.823.8-7.192 1.32l8.859-8.86-1.457 7.509zm59.021-88.031a137.654 137.654 0 005.008-24.342c8.625 3.249 13.069 12.87 9.909 21.551l-4.111 11.295a32.19 32.19 0 00-10.806-8.504z"/><path d="M176.431 48.242c27.965 2.927 54.346 15.492 74.282 35.379 1.464 1.46 3.38 2.19 5.297 2.19s3.833-.73 5.297-2.19c45.276-45.167 116.541-48.546 165.77-7.857a7.5 7.5 0 109.557-11.561c-26.411-21.831-59.885-33.018-94.248-31.506-32.153 1.416-62.554 13.887-86.378 35.292-21.633-19.399-49.067-31.635-78.015-34.666-4.118-.423-7.809 2.559-8.24 6.679a7.498 7.498 0 006.678 8.24zM477.733 317.294a7.497 7.497 0 00-8.795 5.929l-4.957 25.458c-4.216 21.66-16.614 40.381-34.912 52.716-18.295 12.334-40.296 16.807-61.962 12.589l-27.527-5.358a7.5 7.5 0 10-2.865 14.724l27.527 5.358a98.644 98.644 0 0018.854 1.828 96.66 96.66 0 0015.003-1.179v42.587c0 4.142 3.357 7.5 7.5 7.5s7.5-3.358 7.5-7.5v-46.199a98.055 98.055 0 0024.355-11.911c21.62-14.574 36.27-36.695 41.251-62.288l4.956-25.458a7.5 7.5 0 00-5.928-8.796z"/></g></svg>