<?xml version="1.0" encoding="iso-8859-1"?>
<!-- Generator: Adobe Illustrator 19.0.0, SVG Export Plug-In . SVG Version: 6.00 Build 0)  -->
<svg version="1.1" id="Layer_1" xmlns="http://www.w3.org/2000/svg" xmlns:xlink="http://www.w3.org/1999/xlink" x="0px" y="0px"
	 viewBox="0 0 469.333 469.333" fill='white' style="enable-background:new 0 0 469.333 469.333;" xml:space="preserve">
<g>
	<g>
		<g>
			<path d="M418.123,248.895c0.285-0.259,0.684-0.331,0.958-0.605c4.687-4.687,7.249-11.019,7.604-18.809
				c1.437-30.328-33.997-87.109-88.16-141.267C285.633,35.317,229.762,0,199.098,0c-0.229,0-0.438,0-0.667,0
				c-8.333,0.146-15.061,2.729-19.998,7.665c-0.272,0.272-0.419,0.621-0.676,0.903l-0.074-0.06l-27.737,34.378
				C96.82,45.239,21.445,82.79,21.445,138.642c0,17.354,7.182,30.769,17.965,41.237L6.842,220.242
				c-2.875,2.885-6.431,8.124-6.806,16.653c-1.187,25.735,27.388,71.675,72.738,117.031c44.309,44.294,89.493,72.747,115.429,72.747
				c0.208,0,0.396,0,0.583,0c9.187-0.156,14.707-3.822,16.874-6.082L418.248,249.05L418.123,248.895z M130.653,66.797
				l-77.844,96.476c-6.109-6.672-10.032-14.728-10.032-24.631C42.776,103.388,89.475,75.414,130.653,66.797z M191.369,404.782
				c-0.104,0.104-0.937,0.531-2.937,0.562c-0.083,0-0.187,0-0.292,0c-16.415,0-56.954-23.194-100.284-66.499
				c-44.163-44.169-67.224-84.985-66.495-100.972c0.083-1.718,0.458-2.448,1.333-3.416l33.785-41.857
				c27.713,15.949,64.552,20.694,82.289,20.694c22.658,0,40.591-0.605,60.4-5.703c3.791,3.459,8.731,5.703,14.261,5.703
				c11.77,0,21.332-9.571,21.332-21.33c0-11.758-9.562-21.33-21.332-21.33c-10.111,0-18.195,7.208-20.385,16.655
				c-16.229,4.113-31.451,4.675-54.276,4.675c-12.317,0-45.058-3.4-68.895-15.958L173.957,47.062
				c10.465,34.703,45.865,81.522,85.033,120.679c39.265,39.27,86.125,74.521,120.857,84.879L191.369,404.782z M405.395,228.491
				c-0.061,1.261-0.348,3.469-1.329,4.576l-0.253,0.204c-8.718,8.096-61.989-12.865-129.741-80.611
				c-67.861-67.843-88.745-121.1-80.605-129.769l0.159-0.198c1.277-1.209,3.721-1.446,5.576-1.364
				c21.061,0,70.286,28.026,124.241,81.965C377.938,157.784,406.332,208.453,405.395,228.491z"/>
			<path d="M424.774,324.63c-3.958-5.77-13.582-5.77-17.54,0c-7.437,10.769-44.559,65.79-44.559,91.38
				c0,29.401,23.915,53.324,53.329,53.324s53.329-23.923,53.329-53.324C469.333,390.42,432.211,335.399,424.774,324.63z
				 M416.004,448.004c-17.645,0-31.998-14.352-31.998-31.994c0-11.644,16.645-42.045,31.998-66.04
				c15.353,23.985,31.998,54.376,31.998,66.04C448.002,433.652,433.649,448.004,416.004,448.004z"/>
		</g>
	</g>
</g>
<g>
</g>
<g>
</g>
<g>
</g>
<g>
</g>
<g>
</g>
<g>
</g>
<g>
</g>
<g>
</g>
<g>
</g>
<g>
</g>
<g>
</g>
<g>
</g>
<g>
</g>
<g>
</g>
<g>
</g>
</svg>
