<svg xmlns="http://www.w3.org/2000/svg" viewBox="0 0 512.001 512.001"><path d="M68.437 365.724L.385 506.643c-1.533 3.175 1.796 6.505 4.972 4.972l140.92-68.052 13.933-13.933-77.84-77.839-13.933 13.933z" fill="#fed9a8"/><path d="M5.357 511.615l74.646-36.048-43.57-43.57L.385 506.643c-1.533 3.176 1.796 6.505 4.972 4.972z" fill="#333"/><path d="M1.105 510.895c1.038 1.038 2.664 1.487 4.251.72l140.92-68.052 13.933-13.933-38.92-38.92L1.105 510.895z" fill="#f4c892"/><path d="M1.105 510.895c1.038 1.038 2.664 1.487 4.252.72l74.646-36.048-21.785-21.785-57.113 57.113z" fill="#1a1a1a"/><path d="M495.879 16.121c21.495 21.495 21.495 56.344 0 77.839L146.553 443.286l-77.839-77.839L418.04 16.121c21.495-21.495 56.344-21.495 77.839 0z" fill="#ffbf14"/><path d="M495.879 16.121A54.807 54.807 0 00476.053 3.42c7.21 19.531 2.986 42.326-12.701 58.013L114.026 410.759l32.527 32.527L495.879 93.96c21.495-21.495 21.495-56.344 0-77.839z" fill="#ff901d"/><path fill="#21d8de" d="M387.924 46.24l77.837 77.838-29.626 29.626-77.837-77.837z"/><path fill="#11b9c1" d="M432.831 91.146l32.93 32.93-29.626 29.625-32.93-32.93z"/><path d="M495.879 16.121c-21.495-21.495-56.344-21.495-77.839 0l-30.118 30.118 77.839 77.839 30.118-30.118c21.494-21.495 21.494-56.344 0-77.839z" fill="#ff4c4c"/><path d="M495.879 16.121a54.808 54.808 0 00-19.997-12.766c7.122 19.492 2.875 42.201-12.766 57.842l-30.118 30.118 32.763 32.763 30.118-30.118c21.494-21.495 21.495-56.344 0-77.839z" fill="#f33939"/><path fill="#ffb123" d="M120.627 417.36l-25.984-25.985 289.575-289.576 25.985 25.985z"/></svg>